<?xml version="1.0" encoding="utf-8"?>
<!-- Generator: Adobe Illustrator 28.1.0, SVG Export Plug-In . SVG Version: 6.00 Build 0)  -->
<svg version="1.1" id="Camada_1" xmlns="http://www.w3.org/2000/svg" xmlns:xlink="http://www.w3.org/1999/xlink" x="0px" y="0px"
	 viewBox="0 0 1000 1080" style="enable-background:new 0 0 1000 1080;" xml:space="preserve">
<style type="text/css">
	.st0{fill:#181E37;}
	.st1{fill:#181F38;}
</style>
<g>
	<path class="st0" d="M136.35,504.24c0,29.99,0,59.54,0,89.2c29.6,4.8,56.04,16.64,80.33,34.17c2.42-1.75,5-3.38,7.25-5.38
		c0.73-0.65,0.81-2.28,0.81-3.47c0.06-11.91-0.08-23.83,0.14-35.74c0.04-2.23,0.89-4.97,2.35-6.58
		c16.35-18.02,32.72-36.06,51.83-51.29c5-3.98,10.32-7.55,15.56-11.22c2.65-1.85,5.57-2.68,8.63-0.97c3.07,1.71,3.68,4.53,3.67,7.84
		c-0.07,26.13-0.03,52.27-0.04,78.4c0,5.93-1.71,8.14-7.44,9.2c-28.47,5.25-53.83,17.27-76.6,34.99c-4.63,3.61-7.83,3.87-12.08,0.46
		c-21.62-17.38-46.82-26.82-73.35-33.36c-3.71-0.91-7.48-1.61-11.24-2.3c-4.57-0.84-6.73-3.01-7.23-7.61
		c-0.15-1.39-0.12-2.81-0.12-4.22c-0.01-34.46-0.02-68.92-0.03-103.38c0-7.87,3.59-10.37,11.32-8.54
		c27.87,6.58,52.7,19.18,74.83,37.25c4.56,3.72,5.38,7.27,2.35,11.1c-3.33,4.22-8.13,4.83-12.39,1.41
		c-16.76-13.43-35.47-23.14-55.98-29.43C138.23,504.58,137.48,504.48,136.35,504.24z M289.81,593.51c0-18.78,0-37.21,0-56.07
		c-17.58,13.93-32.59,29.78-47.13,46.12c-0.47,0.53-0.95,1.32-0.95,1.98c-0.06,8.49-0.04,16.98-0.04,26.05
		C257.16,602.88,272.95,596.94,289.81,593.51z"/>
	<path class="st0" d="M266.28,485.2c-2.17-2.28-4.47-4.22-6.14-6.6c-1.21-1.72-2.64-4.45-2.04-5.96c0.71-1.8,3.33-3.54,5.4-3.97
		c8.13-1.66,16.35-2.88,24.57-4.1c8.38-1.25,8.4-1.17,8.13,7.15c-0.29,9.09-0.58,18.18-0.89,27.27c-0.17,5.02-2.88,6.92-7.29,4.49
		c-3.41-1.88-6.27-4.74-8.82-6.73c-6.22,5.84-12.82,11.52-18.83,17.78c-24.32,25.31-48.43,50.83-72.72,76.17
		c-2.05,2.14-4.64,3.96-7.3,5.26c-3.54,1.73-6.5,0.03-8.58-3c-2.05-2.98-1.93-6.12,0.52-8.81c5.94-6.54,11.93-13.05,18.04-19.43
		c25.16-26.28,50.37-52.52,75.56-78.77C266.06,485.76,266.13,485.5,266.28,485.2z"/>
</g>
<g>
	<g>
		<path class="st1" d="M442.45,545.44c-3.7-10.28-13.03-16.28-25.23-16.28c-17.82,0-29.04,12.93-29.04,33.52
			c0,20.46,11.35,33.65,29.04,33.65c13.07,0,23.1-6.86,26.26-17.55h14.73c1.47,0,2.58,1.38,2.22,2.81
			c-4.75,18.75-21.84,30.98-43.6,30.98c-28.11,0-46.32-19.53-46.32-49.75c0-29.96,18.87-49.89,47.12-49.89
			c21.8,0,38.31,12.16,42.63,31.3c0.32,1.41-0.78,2.75-2.23,2.75h-13.43c-0.96,0-1.81-0.62-2.13-1.52
			C442.46,545.45,442.46,545.44,442.45,545.44"/>
		<path class="st1" d="M474.23,610.98v-98.19h15.97v98.19H474.23z"/>
		<path class="st1" d="M503.4,592.37c0-12.01,8.71-19.53,24.15-20.72l19.53-1.45v-1.45c0-8.84-5.28-12.41-13.46-12.41
			c-9.5,0-14.78,3.96-14.78,10.82h-13.73c0-14.12,11.61-23.36,29.3-23.36c17.55,0,28.37,9.5,28.37,27.58v39.59h-14.12l-1.19-9.63
			c-2.77,6.73-11.61,11.35-21.78,11.35C511.85,612.7,503.4,604.65,503.4,592.37z M547.22,584.59v-3.43l-13.59,1.06
			c-10.03,0.92-13.86,4.22-13.86,9.5c0,5.94,3.96,8.84,11.22,8.84C540.88,600.56,547.22,594.62,547.22,584.59z"/>
		<path class="st1" d="M589.71,591.18c0.13,5.68,4.36,9.24,11.75,9.24c7.52,0,11.61-3.03,11.61-7.79c0-3.3-1.72-5.68-7.52-7
			l-11.75-2.77c-11.75-2.64-17.42-8.18-17.42-18.61c0-12.8,10.82-20.46,25.87-20.46c14.65,0,24.55,8.45,24.68,21.12h-15.31
			c-0.13-5.54-3.83-9.11-10.03-9.11c-6.33,0-10.03,2.9-10.03,7.79c0,3.7,2.9,6.07,8.45,7.39l11.75,2.77
			c10.95,2.51,16.5,7.52,16.5,17.55c0,13.2-11.22,21.38-27.32,21.38c-16.23,0-26.53-8.71-26.53-21.51H589.71z"/>
		<path class="st1" d="M651.6,591.18c0.13,5.68,4.36,9.24,11.75,9.24c7.52,0,11.61-3.03,11.61-7.79c0-3.3-1.72-5.68-7.52-7
			l-11.75-2.77c-11.75-2.64-17.42-8.18-17.42-18.61c0-12.8,10.82-20.46,25.87-20.46c14.65,0,24.55,8.45,24.68,21.12h-15.31
			c-0.13-5.54-3.83-9.11-10.03-9.11c-6.33,0-10.03,2.9-10.03,7.79c0,3.7,2.9,6.07,8.45,7.39l11.75,2.77
			c10.95,2.51,16.5,7.52,16.5,17.55c0,13.2-11.22,21.38-27.32,21.38c-16.23,0-26.53-8.71-26.53-21.51H651.6z"/>
		<path class="st1" d="M706.73,513.72h16.89v60.18c0,13.86,7.52,21.51,21.25,21.51c13.73,0,21.38-7.79,21.38-21.51v-60.18h16.89
			v61.24c0,22.57-14.78,36.82-38.27,36.82c-23.36,0-38.14-14.12-38.14-36.82V513.72z"/>
		<path class="st1" d="M817.59,621.2v-18.93c4.09,6.6,12.54,10.43,22.3,10.43c19.4,0,30.49-14.78,30.49-35.11
			c0-20.46-12.14-33.79-30.49-33.79c-9.9,0-18.48,4.36-22.44,11.88l-1.06-9.9h-14.91v75.42H817.59z M836.07,558.45
			c11.35,0,18.08,8.31,18.08,19.93c0,11.61-6.73,19.8-18.08,19.8c-11.09,0-18.34-8.05-18.34-19.8S824.99,558.45,836.07,558.45z"/>
	</g>
	<rect x="801.49" y="629.06" class="st1" width="16.1" height="12.14"/>
</g>
</svg>
