<?xml version="1.0" encoding="utf-8"?>
<!-- Generator: Adobe Illustrator 28.1.0, SVG Export Plug-In . SVG Version: 6.00 Build 0)  -->
<svg version="1.1" id="Camada_1" xmlns="http://www.w3.org/2000/svg" xmlns:xlink="http://www.w3.org/1999/xlink" x="0px" y="0px"
	 viewBox="0 0 1000 1080" style="enable-background:new 0 0 1000 1080;" xml:space="preserve">
<style type="text/css">
	.st0{fill:#FFFFFF;}
</style>
<g>
	<path class="st0" d="M349.38,460.31c0,59.03,0,117.19,0,175.58c58.26,9.45,110.31,32.75,158.12,67.26
		c4.76-3.44,9.84-6.65,14.27-10.59c1.44-1.28,1.59-4.49,1.6-6.83c0.11-23.45-0.17-46.91,0.28-70.35c0.08-4.4,1.74-9.78,4.62-12.95
		c32.19-35.48,64.41-70.98,102.02-100.96c9.83-7.84,20.32-14.87,30.63-22.08c5.21-3.65,10.96-5.27,17-1.9
		c6.04,3.37,7.24,8.92,7.22,15.43c-0.13,51.44-0.06,102.88-0.07,154.32c0,11.68-3.37,16.03-14.65,18.11
		c-56.04,10.33-105.96,33.99-150.77,68.88c-9.12,7.1-15.42,7.62-23.78,0.9c-42.55-34.21-92.16-52.8-144.39-65.66
		c-7.3-1.8-14.72-3.16-22.12-4.53c-8.99-1.66-13.24-5.93-14.23-14.97c-0.3-2.75-0.23-5.54-0.23-8.31
		c-0.03-67.83-0.04-135.66-0.05-203.49c0-15.48,7.07-20.4,22.28-16.81c54.86,12.95,103.74,37.75,147.3,73.33
		c8.97,7.33,10.58,14.32,4.63,21.86c-6.56,8.31-15.99,9.51-24.39,2.78c-32.99-26.43-69.82-45.54-110.19-57.93
		C353.08,460.97,351.6,460.78,349.38,460.31z M651.45,636.01c0-36.96,0-73.25,0-110.36c-34.61,27.42-64.15,58.63-92.76,90.78
		c-0.93,1.05-1.86,2.59-1.87,3.91c-0.13,16.71-0.08,33.43-0.08,51.27C587.19,654.46,618.27,642.77,651.45,636.01z"/>
	<path class="st0" d="M605.14,422.82c-4.28-4.49-8.8-8.31-12.09-13c-2.37-3.39-5.2-8.76-4.02-11.74c1.39-3.53,6.56-6.98,10.64-7.81
		c16-3.27,32.19-5.67,48.36-8.08c16.49-2.46,16.53-2.3,16.01,14.08c-0.57,17.89-1.14,35.79-1.75,53.68
		c-0.34,9.88-5.66,13.62-14.35,8.84c-6.71-3.69-12.35-9.33-17.36-13.24c-12.24,11.5-25.23,22.68-37.06,34.99
		c-47.87,49.82-95.34,100.04-143.14,149.93c-4.03,4.21-9.13,7.8-14.37,10.36c-6.97,3.4-12.8,0.05-16.88-5.9
		c-4.03-5.87-3.8-12.04,1.03-17.35c11.7-12.87,23.47-25.69,35.5-38.25c49.52-51.74,99.15-103.37,148.73-155.06
		C604.7,423.93,604.84,423.4,605.14,422.82z"/>
</g>
</svg>
